# xmcd
#
# Track frame offsets: 
#        150
#        12975
#        26533
#        39820
#        52506
#        62949
#        73348
#        86362
#        96057
#        108809
#        120866
#        132908
#        144865
#        156792
#        169432
#        179672
#
# Disc length: 2557 seconds
#
# Revision: 0
# Processed by: cddbd v1.5.2PL0 Copyright (c) Steve Scherf et al.
# Submitted via: ExactAudioCopy v0.99pb5
#
DISCID=c709fb10
DTITLE=Lightnin' Hopkins - Rocky Mountain Blues
DYEAR=1900
DGENRE=
TTITLE0=Baby Please Don't Go
TTITLE1=Katie Mae
TTITLE2=Moon Rise Blues
TTITLE3=Picture On The Wall
TTITLE4=Lightnin's Boogie
TTITLE5=You're Gonna Miss Me
TTITLE6=Thinkin' and Worryin'
TTITLE7=Feel So Bad
TTITLE8=You'ree Not Goin' To Worry My Life Anymore
TTITLE9=Big Mama Jump
TTITLE10=Come Back Baby
TTITLE11=Someday Baby
TTITLE12=Gone With The Wind
TTITLE13=Rocky Mountain Blues
TTITLE14=Down Baby
TTITLE15=Sugar On My Mind
EXTD=
EXTT0=
EXTT1=
EXTT2=
EXTT3=
EXTT4=
EXTT5=
EXTT6=
EXTT7=
EXTT8=
EXTT9=
EXTT10=
EXTT11=
EXTT12=
EXTT13=
EXTT14=
EXTT15=
PLAYORDER=
